# xmcd
#
# Track frame offsets:
#	150
#	9800
#	18462
#	28387
#	40625
#	52275
#	64300
#	73787
#	81175
#	91325
#	102600
#	113287
#
# Disc length: 1670 seconds
#
# Revision: 1
# Processed by: cddbd v1.4PL0 Copyright (c) Steve Scherf et al.
# Submitted via: audiograbber 1.80
#
DISCID=9b06840c
DTITLE=Conway Twitty - Been Away Too Long
DYEAR=1900
DGENRE=
TTITLE0=Wonder If You Told Her About Me
TTITLE1=Blue Is The Way I Feel
TTITLE2=Ever Since You Went Away
TTITLE3=You Made Me What I Am
TTITLE4=Have I Been Away Too Long
TTITLE5=I'll Get Over Losing You
TTITLE6=This Road That I Walk
TTITLE7=Treat Me Mean and Cruel
TTITLE8=Where I Stand
TTITLE9=Big Town
TTITLE10=Let Me Be The Judge
TTITLE11=Sitting In A Dim Cafe
EXTD=
EXTT0=
EXTT1=
EXTT2=
EXTT3=
EXTT4=
EXTT5=
EXTT6=
EXTT7=
EXTT8=
EXTT9=
EXTT10=
EXTT11=
PLAYORDER=
